<svg xmlns="http://www.w3.org/2000/svg" viewBox="0 0 900 620" font-family="'Segoe UI', Arial, sans-serif">
  <defs>
    <filter id="shadow"><feDropShadow dx="0" dy="2" stdDeviation="3" flood-opacity="0.12"/></filter>
  </defs>
  
  <rect width="900" height="620" rx="12" fill="#f8fafc"/>
  
  <!-- Title -->
  <rect width="900" height="55" rx="12" fill="#0a1628"/>
  <rect y="43" width="900" height="12" fill="#0a1628"/>
  <text x="450" y="36" text-anchor="middle" fill="white" font-size="18" font-weight="700">AI Readiness Assessment — Score Your Business Before Adopting AI</text>
  
  <!-- Dimension 1: Data Readiness -->
  <rect x="30" y="80" width="410" height="230" rx="10" fill="white" stroke="#0066cc" stroke-width="2" filter="url(#shadow)"/>
  <rect x="30" y="80" width="410" height="45" rx="10" fill="#0066cc"/>
  <rect x="30" y="115" width="410" height="10" fill="#0066cc"/>
  <text x="50" y="108" fill="white" font-size="15" font-weight="700">1. DATA READINESS</text>
  <text x="420" y="108" text-anchor="end" fill="white" font-size="12">Score: ___ / 15</text>
  
  <text x="50" y="150" fill="#475569" font-size="12">□  Business data is stored digitally (not paper)</text>
  <text x="420" y="150" text-anchor="end" fill="#94a3b8" font-size="11">/3</text>
  <text x="50" y="175" fill="#475569" font-size="12">□  Data is organized in named, findable locations</text>
  <text x="420" y="175" text-anchor="end" fill="#94a3b8" font-size="11">/3</text>
  <text x="50" y="200" fill="#475569" font-size="12">□  Client/patient records are in a central system</text>
  <text x="420" y="200" text-anchor="end" fill="#94a3b8" font-size="11">/3</text>
  <text x="50" y="225" fill="#475569" font-size="12">□  Data is consistently formatted and entered</text>
  <text x="420" y="225" text-anchor="end" fill="#94a3b8" font-size="11">/3</text>
  <text x="50" y="250" fill="#475569" font-size="12">□  Historical data exists for at least 6 months</text>
  <text x="420" y="250" text-anchor="end" fill="#94a3b8" font-size="11">/3</text>
  
  <rect x="50" y="270" width="370" height="26" rx="4" fill="#eff6ff"/>
  <text x="235" y="288" text-anchor="middle" fill="#0066cc" font-size="10" font-weight="600">LOW (1-5): Clean up data first | MED (6-10): Proceed with care | HIGH (11-15): Ready</text>
  
  <!-- Dimension 2: Process Maturity -->
  <rect x="460" y="80" width="410" height="230" rx="10" fill="white" stroke="#0e9f6e" stroke-width="2" filter="url(#shadow)"/>
  <rect x="460" y="80" width="410" height="45" rx="10" fill="#0e9f6e"/>
  <rect x="460" y="115" width="410" height="10" fill="#0e9f6e"/>
  <text x="480" y="108" fill="white" font-size="15" font-weight="700">2. PROCESS MATURITY</text>
  <text x="850" y="108" text-anchor="end" fill="white" font-size="12">Score: ___ / 15</text>
  
  <text x="480" y="150" fill="#475569" font-size="12">□  Core workflows are documented</text>
  <text x="850" y="150" text-anchor="end" fill="#94a3b8" font-size="11">/3</text>
  <text x="480" y="175" fill="#475569" font-size="12">□  Team members follow consistent processes</text>
  <text x="850" y="175" text-anchor="end" fill="#94a3b8" font-size="11">/3</text>
  <text x="480" y="200" fill="#475569" font-size="12">□  Decision criteria are explicit, not intuitive</text>
  <text x="850" y="200" text-anchor="end" fill="#94a3b8" font-size="11">/3</text>
  <text x="480" y="225" fill="#475569" font-size="12">□  Exceptions are known and handled predictably</text>
  <text x="850" y="225" text-anchor="end" fill="#94a3b8" font-size="11">/3</text>
  <text x="480" y="250" fill="#475569" font-size="12">□  Process improvements are tracked over time</text>
  <text x="850" y="250" text-anchor="end" fill="#94a3b8" font-size="11">/3</text>
  
  <rect x="480" y="270" width="370" height="26" rx="4" fill="#f0fdf4"/>
  <text x="665" y="288" text-anchor="middle" fill="#0e9f6e" font-size="10" font-weight="600">LOW (1-5): Document first | MED (6-10): Standardize gaps | HIGH (11-15): Ready</text>
  
  <!-- Dimension 3: Team Capability -->
  <rect x="30" y="325" width="410" height="230" rx="10" fill="white" stroke="#d97706" stroke-width="2" filter="url(#shadow)"/>
  <rect x="30" y="325" width="410" height="45" rx="10" fill="#d97706"/>
  <rect x="30" y="360" width="410" height="10" fill="#d97706"/>
  <text x="50" y="353" fill="white" font-size="15" font-weight="700">3. TEAM CAPABILITY</text>
  <text x="420" y="353" text-anchor="end" fill="white" font-size="12">Score: ___ / 15</text>
  
  <text x="50" y="395" fill="#475569" font-size="12">□  Team uses current software tools daily</text>
  <text x="420" y="395" text-anchor="end" fill="#94a3b8" font-size="11">/3</text>
  <text x="50" y="420" fill="#475569" font-size="12">□  Team is open to process changes</text>
  <text x="420" y="420" text-anchor="end" fill="#94a3b8" font-size="11">/3</text>
  <text x="50" y="445" fill="#475569" font-size="12">□  At least one person can manage new tools</text>
  <text x="420" y="445" text-anchor="end" fill="#94a3b8" font-size="11">/3</text>
  <text x="50" y="470" fill="#475569" font-size="12">□  Leadership supports AI adoption visibly</text>
  <text x="420" y="470" text-anchor="end" fill="#94a3b8" font-size="11">/3</text>
  <text x="50" y="495" fill="#475569" font-size="12">□  Training time can be allocated (2-4 hrs/week)</text>
  <text x="420" y="495" text-anchor="end" fill="#94a3b8" font-size="11">/3</text>
  
  <rect x="50" y="515" width="370" height="26" rx="4" fill="#fffbeb"/>
  <text x="235" y="533" text-anchor="middle" fill="#d97706" font-size="10" font-weight="600">LOW (1-5): Build buy-in first | MED (6-10): Start small | HIGH (11-15): Ready</text>
  
  <!-- Dimension 4: Integration Landscape -->
  <rect x="460" y="325" width="410" height="230" rx="10" fill="white" stroke="#7c3aed" stroke-width="2" filter="url(#shadow)"/>
  <rect x="460" y="325" width="410" height="45" rx="10" fill="#7c3aed"/>
  <rect x="460" y="360" width="410" height="10" fill="#7c3aed"/>
  <text x="480" y="353" fill="white" font-size="15" font-weight="700">4. INTEGRATION LANDSCAPE</text>
  <text x="850" y="353" text-anchor="end" fill="white" font-size="12">Score: ___ / 15</text>
  
  <text x="480" y="395" fill="#475569" font-size="12">□  Core business software has APIs or integrations</text>
  <text x="850" y="395" text-anchor="end" fill="#94a3b8" font-size="11">/3</text>
  <text x="480" y="420" fill="#475569" font-size="12">□  Email, calendar, and CRM are cloud-based</text>
  <text x="850" y="420" text-anchor="end" fill="#94a3b8" font-size="11">/3</text>
  <text x="480" y="445" fill="#475569" font-size="12">□  Systems can share data (not siloed)</text>
  <text x="850" y="445" text-anchor="end" fill="#94a3b8" font-size="11">/3</text>
  <text x="480" y="470" fill="#475569" font-size="12">□  No legacy systems blocking connectivity</text>
  <text x="850" y="470" text-anchor="end" fill="#94a3b8" font-size="11">/3</text>
  <text x="480" y="495" fill="#475569" font-size="12">□  Security requirements are defined and manageable</text>
  <text x="850" y="495" text-anchor="end" fill="#94a3b8" font-size="11">/3</text>
  
  <rect x="480" y="515" width="370" height="26" rx="4" fill="#f5f3ff"/>
  <text x="665" y="533" text-anchor="middle" fill="#7c3aed" font-size="10" font-weight="600">LOW (1-5): Upgrade systems | MED (6-10): Workarounds ok | HIGH (11-15): Ready</text>
  
  <!-- Total Score -->
  <rect x="30" y="570" width="840" height="36" rx="8" fill="#0a1628"/>
  <text x="250" y="594" text-anchor="middle" fill="white" font-size="14" font-weight="700">TOTAL AI READINESS SCORE:  ___ / 60</text>
  <text x="530" y="594" fill="#fcd34d" font-size="12" font-weight="600">0-20: Not ready</text>
  <text x="650" y="594" fill="#fcd34d" font-size="12" font-weight="600">21-40: Ready with prep</text>
  <text x="795" y="594" fill="#86efac" font-size="12" font-weight="600">41-60: Ready now</text>
  
  <text x="450" y="618" text-anchor="middle" fill="#0066cc" font-size="11" font-weight="600">Ikram Rana | Barrana.ai | ikramrana.com — Book a strategy call for a guided assessment</text>
</svg>
