<svg xmlns="http://www.w3.org/2000/svg" viewBox="0 0 900 480" font-family="'Segoe UI', Arial, sans-serif">
  <defs>
    <filter id="shadow"><feDropShadow dx="0" dy="2" stdDeviation="3" flood-opacity="0.12"/></filter>
  </defs>
  
  <rect width="900" height="480" rx="12" fill="#f8fafc"/>
  
  <!-- Title -->
  <rect width="900" height="55" rx="12" fill="#0a1628"/>
  <rect y="43" width="900" height="12" fill="#0a1628"/>
  <text x="450" y="36" text-anchor="middle" fill="white" font-size="18" font-weight="700">The Automation Hierarchy — Start at Level 1, Advance Through Proven Accuracy</text>
  
  <!-- Level 4 (top) -->
  <rect x="180" y="80" width="540" height="75" rx="10" fill="white" stroke="#7c3aed" stroke-width="2" filter="url(#shadow)"/>
  <rect x="180" y="80" width="60" height="75" rx="10" fill="#7c3aed"/>
  <rect x="230" y="80" width="10" height="75" fill="#7c3aed"/>
  <text x="210" y="125" text-anchor="middle" fill="white" font-size="22" font-weight="700">L4</text>
  <text x="260" y="105" fill="#0a1628" font-size="15" font-weight="700">Exception-Based Automation</text>
  <text x="260" y="125" fill="#475569" font-size="12">System handles everything autonomously. Humans see only genuine exceptions.</text>
  <text x="260" y="143" fill="#7c3aed" font-size="11" font-weight="600">Human role: Review weekly exception log</text>
  
  <!-- Arrow -->
  <text x="450" y="170" text-anchor="middle" fill="#94a3b8" font-size="20">↑</text>
  
  <!-- Level 3 -->
  <rect x="140" y="178" width="620" height="75" rx="10" fill="white" stroke="#d97706" stroke-width="2" filter="url(#shadow)"/>
  <rect x="140" y="178" width="60" height="75" rx="10" fill="#d97706"/>
  <rect x="190" y="178" width="10" height="75" fill="#d97706"/>
  <text x="170" y="223" text-anchor="middle" fill="white" font-size="22" font-weight="700">L3</text>
  <text x="220" y="203" fill="#0a1628" font-size="15" font-weight="700">Conditional Automation</text>
  <text x="220" y="223" fill="#475569" font-size="12">System makes routing decisions based on defined rules. Different paths for different conditions.</text>
  <text x="220" y="241" fill="#d97706" font-size="11" font-weight="600">Human role: Approve routing logic, monitor accuracy</text>
  
  <!-- Arrow -->
  <text x="450" y="268" text-anchor="middle" fill="#94a3b8" font-size="20">↑</text>
  
  <!-- Level 2 -->
  <rect x="100" y="276" width="700" height="75" rx="10" fill="white" stroke="#0066cc" stroke-width="2" filter="url(#shadow)"/>
  <rect x="100" y="276" width="60" height="75" rx="10" fill="#0066cc"/>
  <rect x="150" y="276" width="10" height="75" fill="#0066cc"/>
  <text x="130" y="321" text-anchor="middle" fill="white" font-size="22" font-weight="700">L2</text>
  <text x="180" y="301" fill="#0a1628" font-size="15" font-weight="700">Sequence Automation</text>
  <text x="180" y="321" fill="#475569" font-size="12">Connected chain of tasks runs as a single process. Form → data entry → file creation → notification.</text>
  <text x="180" y="339" fill="#0066cc" font-size="11" font-weight="600">Human role: Monitor sequence completion, handle breaks</text>
  
  <!-- Arrow -->
  <text x="450" y="366" text-anchor="middle" fill="#94a3b8" font-size="20">↑</text>
  
  <!-- Level 1 (base) -->
  <rect x="60" y="374" width="780" height="75" rx="10" fill="white" stroke="#16a34a" stroke-width="2" filter="url(#shadow)"/>
  <rect x="60" y="374" width="60" height="75" rx="10" fill="#16a34a"/>
  <rect x="110" y="374" width="10" height="75" fill="#16a34a"/>
  <text x="90" y="419" text-anchor="middle" fill="white" font-size="22" font-weight="700">L1</text>
  <text x="140" y="399" fill="#0a1628" font-size="15" font-weight="700">Task Automation</text>
  <text x="140" y="419" fill="#475569" font-size="12">Individual repetitive tasks handled by AI. Send confirmation, populate field, schedule appointment.</text>
  <text x="140" y="437" fill="#16a34a" font-size="11" font-weight="600">Human role: Verify output, approve results</text>
  
  <!-- START HERE label -->
  <rect x="680" y="392" width="140" height="36" rx="18" fill="#16a34a" filter="url(#shadow)"/>
  <text x="750" y="415" text-anchor="middle" fill="white" font-size="13" font-weight="700">→ START HERE</text>
  
  <!-- Footer -->
  <text x="450" y="470" text-anchor="middle" fill="#475569" font-size="11">Each level requires the reliability of the level below it. Do not skip levels.</text>
  <text x="450" y="488" text-anchor="middle" fill="#0066cc" font-size="11" font-weight="600">Ikram Rana | Barrana.ai | ikramrana.com</text>
</svg>
