<svg xmlns="http://www.w3.org/2000/svg" viewBox="0 0 900 500" font-family="'Segoe UI', Arial, sans-serif">
  <defs>
    <filter id="shadow"><feDropShadow dx="0" dy="2" stdDeviation="3" flood-opacity="0.12"/></filter>
  </defs>
  
  <rect width="900" height="500" rx="12" fill="#f8fafc"/>
  
  <!-- Title -->
  <rect width="900" height="55" rx="12" fill="#0a1628"/>
  <rect y="43" width="900" height="12" fill="#0a1628"/>
  <text x="450" y="36" text-anchor="middle" fill="white" font-size="18" font-weight="700">Decision Classification Model — Which Decisions Should AI Handle?</text>
  
  <!-- Category A -->
  <rect x="30" y="80" width="200" height="340" rx="10" fill="white" stroke="#16a34a" stroke-width="2" filter="url(#shadow)"/>
  <rect x="30" y="80" width="200" height="55" rx="10" fill="#16a34a"/>
  <rect x="30" y="125" width="200" height="10" fill="#16a34a"/>
  <text x="130" y="103" text-anchor="middle" fill="white" font-size="18" font-weight="700">CATEGORY A</text>
  <text x="130" y="121" text-anchor="middle" fill="white" font-size="11">ROUTINE</text>
  
  <text x="130" y="158" text-anchor="middle" fill="#14532d" font-size="13" font-weight="700">AI Decides Autonomously</text>
  <line x1="55" y1="170" x2="205" y2="170" stroke="#dcfce7" stroke-width="1"/>
  
  <text x="130" y="195" text-anchor="middle" fill="#475569" font-size="11">Clear rules</text>
  <text x="130" y="213" text-anchor="middle" fill="#475569" font-size="11">Predictable correct answers</text>
  <text x="130" y="231" text-anchor="middle" fill="#475569" font-size="11">Low error consequence</text>
  
  <line x1="55" y1="248" x2="205" y2="248" stroke="#dcfce7" stroke-width="1"/>
  <text x="130" y="270" text-anchor="middle" fill="#64748b" font-size="10" font-style="italic">Examples:</text>
  <text x="130" y="288" text-anchor="middle" fill="#475569" font-size="10">Invoice categorization</text>
  <text x="130" y="304" text-anchor="middle" fill="#475569" font-size="10">Email routing</text>
  <text x="130" y="320" text-anchor="middle" fill="#475569" font-size="10">Appointment confirmations</text>
  <text x="130" y="336" text-anchor="middle" fill="#475569" font-size="10">Data entry validation</text>
  
  <rect x="50" y="360" width="160" height="44" rx="6" fill="#dcfce7"/>
  <text x="130" y="378" text-anchor="middle" fill="#16a34a" font-size="10" font-weight="600">HUMAN INVOLVEMENT:</text>
  <text x="130" y="394" text-anchor="middle" fill="#16a34a" font-size="11" font-weight="700">None (exception review only)</text>
  
  <!-- Category B -->
  <rect x="245" y="80" width="200" height="340" rx="10" fill="white" stroke="#0066cc" stroke-width="2" filter="url(#shadow)"/>
  <rect x="245" y="80" width="200" height="55" rx="10" fill="#0066cc"/>
  <rect x="245" y="125" width="200" height="10" fill="#0066cc"/>
  <text x="345" y="103" text-anchor="middle" fill="white" font-size="18" font-weight="700">CATEGORY B</text>
  <text x="345" y="121" text-anchor="middle" fill="white" font-size="11">PATTERN-BASED</text>
  
  <text x="345" y="158" text-anchor="middle" fill="#1e3a5f" font-size="13" font-weight="700">AI Recommends, Human Decides</text>
  <line x1="270" y1="170" x2="420" y2="170" stroke="#eff6ff" stroke-width="1"/>
  
  <text x="345" y="195" text-anchor="middle" fill="#475569" font-size="11">Data-driven patterns</text>
  <text x="345" y="213" text-anchor="middle" fill="#475569" font-size="11">Multiple variables</text>
  <text x="345" y="231" text-anchor="middle" fill="#475569" font-size="11">Moderate consequence</text>
  
  <line x1="270" y1="248" x2="420" y2="248" stroke="#eff6ff" stroke-width="1"/>
  <text x="345" y="270" text-anchor="middle" fill="#64748b" font-size="10" font-style="italic">Examples:</text>
  <text x="345" y="288" text-anchor="middle" fill="#475569" font-size="10">Lead scoring</text>
  <text x="345" y="304" text-anchor="middle" fill="#475569" font-size="10">Staffing recommendations</text>
  <text x="345" y="320" text-anchor="middle" fill="#475569" font-size="10">Churn risk identification</text>
  <text x="345" y="336" text-anchor="middle" fill="#475569" font-size="10">Pricing suggestions</text>
  
  <rect x="265" y="360" width="160" height="44" rx="6" fill="#eff6ff"/>
  <text x="345" y="378" text-anchor="middle" fill="#0066cc" font-size="10" font-weight="600">HUMAN INVOLVEMENT:</text>
  <text x="345" y="394" text-anchor="middle" fill="#0066cc" font-size="11" font-weight="700">Reviews AI recommendation</text>
  
  <!-- Category C -->
  <rect x="460" y="80" width="200" height="340" rx="10" fill="white" stroke="#d97706" stroke-width="2" filter="url(#shadow)"/>
  <rect x="460" y="80" width="200" height="55" rx="10" fill="#d97706"/>
  <rect x="460" y="125" width="200" height="10" fill="#d97706"/>
  <text x="560" y="103" text-anchor="middle" fill="white" font-size="18" font-weight="700">CATEGORY C</text>
  <text x="560" y="121" text-anchor="middle" fill="white" font-size="11">STRATEGIC</text>
  
  <text x="560" y="158" text-anchor="middle" fill="#78350f" font-size="13" font-weight="700">AI Prepares, Human Decides</text>
  <line x1="485" y1="170" x2="635" y2="170" stroke="#fffbeb" stroke-width="1"/>
  
  <text x="560" y="195" text-anchor="middle" fill="#475569" font-size="11">Requires contextual judgment</text>
  <text x="560" y="213" text-anchor="middle" fill="#475569" font-size="11">High uncertainty</text>
  <text x="560" y="231" text-anchor="middle" fill="#475569" font-size="11">High consequence</text>
  
  <line x1="485" y1="248" x2="635" y2="248" stroke="#fffbeb" stroke-width="1"/>
  <text x="560" y="270" text-anchor="middle" fill="#64748b" font-size="10" font-style="italic">Examples:</text>
  <text x="560" y="288" text-anchor="middle" fill="#475569" font-size="10">Market entry decisions</text>
  <text x="560" y="304" text-anchor="middle" fill="#475569" font-size="10">Client relationship strategy</text>
  <text x="560" y="320" text-anchor="middle" fill="#475569" font-size="10">Pricing strategy</text>
  <text x="560" y="336" text-anchor="middle" fill="#475569" font-size="10">Hiring decisions</text>
  
  <rect x="480" y="360" width="160" height="44" rx="6" fill="#fffbeb"/>
  <text x="560" y="378" text-anchor="middle" fill="#d97706" font-size="10" font-weight="600">HUMAN INVOLVEMENT:</text>
  <text x="560" y="394" text-anchor="middle" fill="#d97706" font-size="11" font-weight="700">Makes the decision</text>
  
  <!-- Category D -->
  <rect x="675" y="80" width="200" height="340" rx="10" fill="white" stroke="#dc2626" stroke-width="2" filter="url(#shadow)"/>
  <rect x="675" y="80" width="200" height="55" rx="10" fill="#dc2626"/>
  <rect x="675" y="125" width="200" height="10" fill="#dc2626"/>
  <text x="775" y="103" text-anchor="middle" fill="white" font-size="18" font-weight="700">CATEGORY D</text>
  <text x="775" y="121" text-anchor="middle" fill="white" font-size="11">ETHICAL / RELATIONAL</text>
  
  <text x="775" y="158" text-anchor="middle" fill="#7f1d1d" font-size="13" font-weight="700">Human Only</text>
  <line x1="700" y1="170" x2="850" y2="170" stroke="#fee2e2" stroke-width="1"/>
  
  <text x="775" y="195" text-anchor="middle" fill="#475569" font-size="11">Moral reasoning required</text>
  <text x="775" y="213" text-anchor="middle" fill="#475569" font-size="11">Emotional intelligence</text>
  <text x="775" y="231" text-anchor="middle" fill="#475569" font-size="11">Irreversible human impact</text>
  
  <line x1="700" y1="248" x2="850" y2="248" stroke="#fee2e2" stroke-width="1"/>
  <text x="775" y="270" text-anchor="middle" fill="#64748b" font-size="10" font-style="italic">Examples:</text>
  <text x="775" y="288" text-anchor="middle" fill="#475569" font-size="10">Delivering bad news</text>
  <text x="775" y="304" text-anchor="middle" fill="#475569" font-size="10">Employee conflicts</text>
  <text x="775" y="320" text-anchor="middle" fill="#475569" font-size="10">Fairness determinations</text>
  <text x="775" y="336" text-anchor="middle" fill="#475569" font-size="10">Sensitive client matters</text>
  
  <rect x="695" y="360" width="160" height="44" rx="6" fill="#fee2e2"/>
  <text x="775" y="378" text-anchor="middle" fill="#dc2626" font-size="10" font-weight="600">HUMAN INVOLVEMENT:</text>
  <text x="775" y="394" text-anchor="middle" fill="#dc2626" font-size="11" font-weight="700">100% — AI not appropriate</text>
  
  <!-- Bottom -->
  <rect x="30" y="435" width="845" height="45" rx="8" fill="#f1f5f9" stroke="#e2e8f0" stroke-width="1"/>
  <text x="452" y="454" text-anchor="middle" fill="#0a1628" font-size="12" font-weight="600">Most businesses have far more Category A decisions consuming human attention than they realize.</text>
  <text x="452" y="472" text-anchor="middle" fill="#475569" font-size="11">Identifying and automating routine decisions is the highest-impact application of AI decision systems.</text>
  <text x="450" y="495" text-anchor="middle" fill="#0066cc" font-size="11" font-weight="600">Ikram Rana | Barrana.ai | ikramrana.com</text>
</svg>
